# xmcd
#
# Track frame offsets: 
#        150
#        11922
#        30632
#        49243
#        68202
#        84828
#        99682
#        114269
#        130247
#        143611
#
# Disc length: 2111 seconds
#
# Revision: 0
# Processed by: cddbd v1.5.2PL0 Copyright (c) Steve Scherf et al.
# Submitted via: ExactAudioCopy v0.99pb4
#
DISCID=7f083d0a
DTITLE=Tanya Tucker - Can't Run From Yourself
DYEAR=1992
DGENRE=Country
TTITLE0=It's a Little Too Late
TTITLE1=Can't Run From Yourself
TTITLE2=Two Sparrows In a Hurricane
TTITLE3=Don't Let My Heart Be the Last to Know
TTITLE4=Tell Me About It (Duet with Delbert McClinton)
TTITLE5=I've Learned to Live
TTITLE6=What Do They Know
TTITLE7=Rainbow Rider
TTITLE8=Half the Moon
TTITLE9=Danger Ahead
EXTD=
EXTT0=
EXTT1=
EXTT2=
EXTT3=
EXTT4=
EXTT5=
EXTT6=
EXTT7=
EXTT8=
EXTT9=
PLAYORDER=
